<?xml version="1.0"?>
<svg xmlns="http://www.w3.org/2000/svg" xmlns:xlink="http://www.w3.org/1999/xlink" xmlns:svgjs="http://svgjs.com/svgjs" version="1.1" width="512" height="512" x="0" y="0" viewBox="0 0 509.958 509.958" style="enable-background:new 0 0 512 512" xml:space="preserve" class=""><g><g xmlns="http://www.w3.org/2000/svg"><path d="m341.286 360.592-23.134-20.291h-155.665l-113.911-161.327c-5.675-8.084-16.828-10.038-24.912-4.362-8.084 5.674-10.037 16.828-4.362 24.912l119.252 169.886c3.348 4.77 8.81 7.609 14.638 7.609h69.395v75.94c-31.387 3.418-55.135 18.662-55.135 26.419 0 8.769 30.341 15.877 67.769 15.877s67.769-7.108 67.769-15.877c0-7.734-23.606-22.913-54.856-26.39 0-16.775 0-59.085 0-75.969h60.833l37.135 27.112-4.808-32.341c-.553-3.721-.546-7.492-.008-11.198z" fill="#8be3d9" data-original="#000000" style="" class=""/><path d="m165.698 324.078c3.922 3.799 9.257 6.147 15.149 6.147h141.773l22.371 15.646 12.182-44.657-15.201-10.631c-3.661-2.561-8.02-3.934-12.488-3.934h-69.84l-3.322-4.569h-70.337c-2.065-.368-12.974 2.354-20.363-7.465l-31.878-42.929 39.285 34.493c3.546 3.114 8.103 4.711 12.821 4.711h.086 80.953c10.732-.047 19.394-9.023 19.346-19.756-.047-10.565-8.564-19.184-19.517-19.184h-73.584l-33.747-29.469 32.984 18.362h20.965l-36.839-52.432c-7.844-10.99-23.112-13.54-34.102-5.696l-43.985 26.578c-10.99 7.844-13.54 23.112-5.696 34.102z" fill="#8be3d9" data-original="#000000" style="" class=""/><ellipse cx="91.3" cy="123.789" rx="42.882" ry="42.882" transform="matrix(.456 -.89 .89 .456 -60.495 148.648)" fill="#8be3d9" data-original="#000000" style="" class=""/><ellipse cx="352.921" cy="45.426" rx="45.42" ry="45.42" transform="matrix(.514 -.858 .858 .514 132.492 324.76)" fill="#8be3d9" data-original="#000000" style="" class=""/><g><path d="m493.633 481.628-17.223-115.844 11.055-78.224-24.637-136.226c-2.986-17.991-13.357-33.915-28.604-43.92-15.247-10.006-33.983-13.183-51.676-8.763l-19.394 4.845c-9.479 2.368-16.941 8.728-21.004 16.865l24.927-3.428-46.702 17.311-74.494-27.829c-9.033-3.374-18.919.024-24.142 7.631-4.094.31-40.64 3.076-45.259 3.425l-8.116-6.465c-3.329-2.653-8.18-2.103-10.833 1.226-2.653 3.331-2.104 8.18 1.226 10.833l10.483 8.351c1.37 1.091 3.064 1.679 4.804 1.679.193 0 .387-.008.582-.022 9.74-.737 34.166-2.586 43.901-3.322 1.363 6.733 6.043 12.637 12.953 15.218l81.667 30.508c4.487 1.677 9.587 1.786 14.353.018l49.623-18.394-30.087 20.331 25.348 120.655-16.786 61.534c-.899 3.299-1.104 6.748-.602 10.13l17.713 119.139c2.015 13.55 14.625 22.794 28.057 20.794 13.49-2.006 22.8-14.567 20.794-28.056l-16.951-114.011 19.749-72.396 11.03-1.455-8.408 69.384c-.266 2.195-.236 4.416.089 6.602l17.713 119.139c2.003 13.471 14.551 22.804 28.057 20.794 13.49-2.005 22.8-14.567 20.794-28.057z" fill="#8be3d9" data-original="#000000" style="" class=""/></g></g></g></svg>
