<?xml version="1.0"?>
<svg xmlns="http://www.w3.org/2000/svg" xmlns:xlink="http://www.w3.org/1999/xlink" xmlns:svgjs="http://svgjs.com/svgjs" version="1.1" width="512" height="512" x="0" y="0" viewBox="0 0 512 512" style="enable-background:new 0 0 512 512" xml:space="preserve" class=""><g><g xmlns="http://www.w3.org/2000/svg"><g><path d="m346.061 273.862c-8.284 0-15-6.716-15-15v-172.315c0-6.776-1.993-13.251-5.764-18.723-9.46-13.727-28.522-17.735-43.398-9.128l-30.623 17.722c-7.171 4.151-16.346 1.701-20.496-5.469-4.149-7.171-1.701-16.347 5.47-20.496l30.623-17.722c28.331-16.398 64.845-8.459 83.127 18.069 7.237 10.501 11.062 22.861 11.062 35.746v172.315c-.001 8.285-6.717 15.001-15.001 15.001z" fill="#e2dff4" data-original="#e2dff4" style="" class=""/><g><path d="m264.375 119.659-20.126 20.126c-4.52 4.52-11.848 4.52-16.368 0l-56.459-56.459c-4.52-4.52-4.52-11.848 0-16.368l20.126-20.126c17.231-17.231 45.167-17.231 62.398 0l10.429 10.429c17.231 17.23 17.231 45.167 0 62.398z" fill="#8be3d9" data-original="#00da80" style="" class=""/><path d="m258.242 51.127-59.51 59.509 29.149 29.149c4.52 4.52 11.848 4.52 16.368 0l20.126-20.126c17.231-17.231 17.231-45.167 0-62.398z" fill="#bef4f4" data-original="#00a78e" style="" class=""/></g></g><g><g><g><g><path d="m225.939 316.172h60.122v101.76h-60.122z" fill="#e2dff4" data-original="#e2dff4" style="" class=""/><path d="m256 316.172h30.061v101.76h-30.061z" fill="#d5d3ea" data-original="#d5d3ea" style="" class=""/></g><g><path d="m316.061 472.786h-120.122l30-54.854h60.122z" fill="#d5d3ea" data-original="#d5d3ea" style="" class=""/><path d="m256 472.786h60.061l-30-54.854h-30.061z" fill="#bebcdd" data-original="#bebcdd" style="" class=""/></g></g><g><path d="m346.061 487.79h-180.122c-8.284 0-15-6.716-15-15s6.716-15 15-15h180.122c8.284 0 15 6.716 15 15s-6.716 15-15 15z" fill="#fbf4f4" data-original="#fbf4f4" style="" class=""/><path d="m346.061 457.79h-90.061v30h90.061c8.284 0 15-6.716 15-15s-6.716-15-15-15z" fill="#e2dff4" data-original="#e2dff4" style="" class=""/></g></g><g><path d="m496.431 345.057-131.231-79.486c-5.372-3.254-11.603-4.982-17.965-4.982h-153.174c-11.983 0-23.055-6.104-29.043-16.011l-102.412-169.437c-9.266-15.33-29.807-20.571-45.851-11.699l-.027.015c-16.003 8.849-21.478 28.394-12.236 43.685l121.746 201.426c5.988 9.907 17.06 16.011 29.043 16.011h172.441c6.362 0 12.593 1.728 17.965 4.982l114.813 69.541c15.625 9.464 36.329 5.056 46.259-9.849 9.944-14.926 5.318-34.719-10.328-44.196z" fill="#8be3d9" data-original="#0d8ebc" style="" class=""/><path d="m496.431 345.057-131.231-79.485c-5.372-3.254-11.603-4.982-17.965-4.982h-91.235v63.988h71.723c6.362 0 12.593 1.728 17.965 4.982l114.813 69.541c15.625 9.464 36.329 5.056 46.259-9.849 9.943-14.925 5.317-34.718-10.329-44.195z" fill="#bef4f4" data-original="#0a617d" style="" class=""/></g></g></g></g></svg>
