<?xml version="1.0" standalone="no"?>
<!DOCTYPE svg PUBLIC "-//W3C//DTD SVG 20010904//EN"
 "http://www.w3.org/TR/2001/REC-SVG-20010904/DTD/svg10.dtd">
<svg version="1.0" xmlns="http://www.w3.org/2000/svg"
 width="1471.000000pt" height="1150.000000pt" viewBox="0 0 1471.000000 1150.000000"
 preserveAspectRatio="xMidYMid meet" >

<g transform="translate(0.000000,1150.000000) scale(0.100000,-0.100000)"
 style="fill:#FFFFFF" stroke="none" >
<path d="M8750 9301 c-181 -39 -313 -115 -466 -266 -127 -127 -214 -250 -298
-425 -54 -112 -129 -301 -122 -307 2 -2 29 31 61 74 161 215 411 414 639 508
156 65 233 79 411 79 147 0 166 -2 240 -27 147 -49 225 -134 225 -245 0 -117
-130 -426 -251 -595 -74 -104 -194 -228 -281 -293 -80 -59 -85 -64 -23 -29
260 148 502 387 635 630 139 253 114 556 -60 726 -66 64 -200 137 -305 165
-94 25 -301 28 -405 5z"/>
<path d="M5759 9157 c-96 -33 -172 -82 -264 -172 -204 -200 -334 -493 -386
-875 -21 -152 -16 -476 10 -650 25 -170 66 -342 116 -499 120 -371 349 -774
584 -1031 l51 -55 -25 65 c-58 155 -167 500 -209 661 -153 590 -214 1179 -156
1511 52 306 190 524 359 568 91 24 137 2 326 -156 205 -171 390 -322 470 -383
l70 -53 -92 88 c-272 263 -496 602 -608 921 -16 45 -24 55 -57 68 -53 21 -111
18 -189 -8z"/>
<path d="M4424 5110 c-277 -31 -394 -172 -435 -522 -15 -128 -6 -475 15 -573
43 -208 125 -317 276 -366 51 -17 99 -22 220 -26 244 -8 366 19 459 103 109
98 158 262 168 559 16 511 -91 758 -353 813 -71 15 -266 22 -350 12z m331
-191 c88 -24 140 -96 172 -239 24 -109 25 -536 0 -633 -32 -127 -82 -193 -171
-224 -65 -23 -325 -26 -397 -4 -93 26 -144 90 -176 218 -14 56 -17 114 -17
328 0 236 2 267 22 339 55 199 131 241 412 230 63 -2 133 -9 155 -15z"/>
<path d="M2526 5078 c-3 -18 -24 -321 -46 -673 -22 -352 -43 -670 -46 -707
l-7 -68 91 0 90 0 6 68 c3 37 20 274 36 527 17 253 31 469 33 480 1 11 49
-122 106 -295 56 -173 137 -420 178 -548 l76 -233 90 3 89 3 69 220 c234 745
273 867 276 859 2 -7 83 -1060 83 -1080 0 -2 41 -4 90 -4 50 0 90 3 90 8 0 4
-25 329 -55 722 -30 393 -55 723 -55 733 0 15 -12 17 -115 17 l-114 0 -30 -97
c-17 -54 -97 -313 -178 -575 -82 -263 -151 -478 -154 -478 -3 0 -88 259 -189
575 l-184 575 -113 0 -112 0 -5 -32z"/>
<path d="M5293 4573 c3 -513 4 -542 25 -621 52 -197 139 -291 299 -322 40 -8
125 -11 249 -8 168 4 195 7 247 28 119 48 192 143 239 315 21 77 22 100 26
613 l3 532 -90 0 -90 0 -3 -517 c-4 -491 -5 -522 -25 -587 -27 -87 -67 -144
-123 -176 -42 -23 -56 -25 -201 -28 -96 -2 -172 1 -198 8 -59 16 -116 70 -140
134 -35 95 -41 191 -41 687 l0 479 -91 0 -90 0 4 -537z"/>
<path d="M6570 4370 l0 -740 334 0 c393 0 425 5 516 86 87 79 120 168 120 329
0 153 -38 261 -114 321 l-33 26 43 40 c54 49 81 108 95 204 21 141 -14 266
-101 358 -97 102 -163 116 -567 116 l-293 0 0 -740z m683 536 c80 -40 118
-135 98 -248 -12 -68 -44 -118 -94 -146 -27 -14 -66 -17 -269 -20 l-238 -3 0
214 c0 117 3 217 8 221 4 4 108 6 232 4 195 -3 230 -6 263 -22z m-40 -607 c53
-14 101 -60 127 -121 19 -45 22 -65 18 -149 -3 -85 -7 -101 -31 -138 -49 -74
-75 -81 -344 -81 l-233 0 0 250 0 250 213 0 c117 0 229 -5 250 -11z"/>
<path d="M8151 5083 c-17 -45 -531 -1445 -531 -1449 0 -2 48 -4 108 -4 l107 0
64 200 65 200 275 0 276 0 60 -197 61 -198 106 -3 107 -3 -18 53 c-40 113
-484 1375 -493 1401 -10 26 -12 27 -93 27 -81 0 -83 -1 -94 -27z m199 -578
c55 -158 100 -290 100 -292 0 -1 -95 -3 -211 -3 -186 0 -210 2 -205 15 3 9 46
129 95 268 108 304 110 311 116 305 2 -2 50 -134 105 -293z"/>
<path d="M8770 5103 c0 -3 106 -220 235 -481 l235 -475 0 -258 0 -259 90 0 90
0 0 264 0 264 250 466 c138 257 250 471 250 477 0 6 -36 9 -96 7 l-96 -3 -197
-362 c-108 -200 -199 -363 -203 -363 -3 0 -87 164 -187 365 l-180 365 -95 0
c-53 0 -96 -3 -96 -7z"/>
<path d="M10300 5101 c-71 -15 -128 -60 -166 -131 -18 -33 -19 -68 -19 -610
l0 -576 26 -49 c18 -35 39 -59 74 -80 l48 -30 246 -3 c135 -2 306 -1 379 3
l132 7 0 84 0 84 -345 0 c-341 0 -344 0 -365 22 -19 20 -20 34 -20 230 l0 208
323 2 322 3 3 93 3 92 -326 0 -325 0 0 218 c0 119 4 223 8 230 17 26 86 32
400 32 l323 0 -3 88 -3 87 -340 1 c-187 1 -356 -1 -375 -5z"/>
<path d="M11220 4371 l0 -741 323 0 c313 0 324 1 389 24 166 59 281 209 340
443 30 119 32 412 5 543 -51 236 -164 385 -336 442 -61 20 -91 22 -393 26
l-328 4 0 -741z m617 548 c160 -28 246 -152 274 -397 31 -264 -22 -512 -135
-625 -73 -75 -102 -81 -353 -85 l-223 -4 0 561 0 561 187 0 c102 0 215 -5 250
-11z"/>
<path d="M4458 2883 l-28 -4 0 -260 0 -259 103 0 c222 0 315 73 325 256 4 72
1 89 -21 137 -30 67 -86 111 -158 126 -48 11 -164 12 -221 4z m241 -76 c62
-31 91 -88 91 -176 -1 -145 -82 -221 -237 -221 l-53 0 0 209 c0 209 0 210 23
214 43 10 132 -4 176 -26z"/>
<path d="M5030 2625 l0 -265 145 0 145 0 0 30 0 30 -110 0 -110 0 0 95 0 95
100 0 100 0 0 25 0 25 -100 0 -100 0 0 85 0 85 105 0 105 0 0 30 0 30 -140 0
-140 0 0 -265z"/>
<path d="M5490 2625 l0 -265 30 0 30 0 2 218 3 217 24 -45 c12 -25 71 -123
130 -217 l106 -173 38 0 37 0 -2 263 -3 262 -34 3 -33 3 3 -214 4 -214 -41 71
c-51 91 -193 316 -212 339 -9 10 -29 17 -49 17 l-33 0 0 -265z"/>
<path d="M6020 2860 l0 -30 80 0 80 0 0 -235 0 -235 35 0 35 0 0 235 0 235 80
0 80 0 0 30 0 30 -195 0 -195 0 0 -30z"/>
<path d="M6680 2866 c-14 -37 -170 -497 -170 -502 0 -2 15 -4 34 -4 35 0 35 0
62 85 l28 85 92 0 93 0 27 -85 28 -85 38 0 37 0 -48 138 c-26 75 -67 194 -90
265 l-43 127 -39 0 c-32 0 -41 -4 -49 -24z m120 -278 c0 -4 -34 -8 -76 -8 -56
0 -74 3 -71 13 3 6 20 60 38 120 l34 107 37 -112 c21 -62 38 -116 38 -120z"/>
<path d="M7107 2883 c-4 -3 -7 -123 -7 -265 l0 -258 150 0 150 0 0 30 0 30
-115 0 -115 0 0 235 0 235 -28 0 c-16 0 -32 -3 -35 -7z"/>
<path d="M7902 2864 c-186 -93 -189 -395 -5 -485 38 -18 64 -23 128 -23 102 1
134 13 127 49 -3 19 -9 24 -21 20 -9 -4 -43 -9 -77 -12 -108 -9 -187 45 -214
146 -26 99 19 219 96 256 41 20 127 26 180 12 28 -7 32 -5 37 15 4 12 2 27 -4
33 -5 5 -51 11 -102 13 -83 3 -97 1 -145 -24z"/>
<path d="M8320 2625 l0 -265 145 0 145 0 0 30 0 30 -110 0 -110 0 0 235 0 235
-35 0 -35 0 0 -265z"/>
<path d="M8770 2626 l0 -266 35 0 35 0 -2 263 -3 262 -32 3 -33 3 0 -265z"/>
<path d="M9037 2883 c-4 -3 -7 -123 -7 -265 l0 -258 36 0 37 0 -5 215 c-2 118
-3 215 -2 215 1 0 20 -33 43 -72 22 -40 80 -136 128 -213 86 -136 90 -140 126
-143 l37 -3 -2 263 -3 263 -30 0 -30 0 1 -213 1 -213 -31 58 c-17 32 -76 129
-131 216 -94 147 -102 157 -131 157 -17 0 -34 -3 -37 -7z"/>
<path d="M9627 2883 c-4 -3 -7 -123 -7 -265 l0 -258 35 0 35 0 0 265 0 265
-28 0 c-16 0 -32 -3 -35 -7z"/>
<path d="M10010 2869 c-96 -43 -141 -113 -148 -232 -5 -92 13 -150 65 -208 58
-64 171 -90 286 -66 34 7 38 11 35 35 -2 18 -8 26 -18 23 -47 -11 -131 -12
-167 -2 -80 22 -133 102 -133 202 0 141 98 233 230 215 25 -3 54 -7 65 -8 31
-4 34 47 3 56 -53 14 -173 6 -218 -15z"/>
</g>
</svg>
